PathFileType	4	(X/Y/Z)	Kaydara																																																																																																																									
DataRate	CameraRate	NumFrames	NumMarkers	Units	OrigDataRate	OrigDataStartFrame	OrigNumFrames																																																																																																																					
30	30	7	41	mm	30	132	133																																																																																																																					
Frame#	Time	PAIB_LFHD			PAIB_RFHD			PAIB_LBHD			PAIB_RBHD			PAIB_LFTShould			PAIB_RFTShould			PAIB_LRRShould			PAIB_RRRShould			PAIB_T10			PAIB_STRN			PAIB_TRUN			PAIB_LSHO			PAIB_LUPA			PAIB_LELB			PAIB_LFRM			PAIB_LWRA			PAIB_LWRB			PAIB_LFIN			PAIB_RSHO			PAIB_RUPA			PAIB_RELB			PAIB_RFRM			PAIB_RWRA			PAIB_RWRB			PAIB_RFIN			PAIB_LFWT			PAIB_RFWT			PAIB_LBWT			PAIB_RBWT			PAIB_LTHI			PAIB_LKNE			PAIB_LSHN			PAIB_LANK			PAIB_LHEE			PAIB_LTOE			PAIB_RTHI			PAIB_RKNE			PAIB_RSHN			PAIB_RANK			PAIB_RHEE			PAIB_RTOE		
		X1	Y1	Z1	X2	Y2	Z2	X3	Y3	Z3	X4	Y4	Z4	X5	Y5	Z5	X6	Y6	Z6	X7	Y7	Z7	X8	Y8	Z8	X9	Y9	Z9	X10	Y10	Z10	X11	Y11	Z11	X12	Y12	Z12	X13	Y13	Z13	X14	Y14	Z14	X15	Y15	Z15	X16	Y16	Z16	X17	Y17	Z17	X18	Y18	Z18	X19	Y19	Z19	X20	Y20	Z20	X21	Y21	Z21	X22	Y22	Z22	X23	Y23	Z23	X24	Y24	Z24	X25	Y25	Z25	X26	Y26	Z26	X27	Y27	Z27	X28	Y28	Z28	X29	Y29	Z29	X30	Y30	Z30	X31	Y31	Z31	X32	Y32	Z32	X33	Y33	Z33	X34	Y34	Z34	X35	Y35	Z35	X36	Y36	Z36	X37	Y37	Z37	X38	Y38	Z38	X39	Y39	Z39	X40	Y40	Z40	X41	Y41	Z41
																																																																																																																												
117	4.367	215.56713	1659.52347	1857.47879	31.57539	1642.5882	1849.04922	232.63578	1628.33832	1733.32535	28.81535	1621.5361	1735.20218	217.85788	1404.71207	1846.69769	96.74733	1392.7211	1852.48428	211.639	1469.09576	1702.62558	63.30597	1456.95496	1717.79663	139.59543	1306.28433	1622.84592	174.02979	1332.55798	1887.31735	182.18338	1229.64523	1903.13599	342.5811	1433.27148	1757.30087	418.4079	1214.4194	1722.19818	439.27681	1144.53354	1668.49945	491.56044	1039.59702	1671.689	484.89258	890.16632	1721.92688	512.26513	909.69551	1648.29681	543.31432	856.41693	1688.45581	-34.0028	1394.66125	1804.0947	-104.73018	1224.17717	1779.22394	-133.78041	1111.38603	1787.3703	-130.85078	998.26103	1878.16452	-51.85255	963.14026	2008.1604	-116.90094	918.22807	1978.27591	-105.88036	922.89932	2050.23056	274.43867	942.80113	1854.18411	39.01157	941.49338	1858.77426	215.23407	972.7977	1637.41714	72.35453	985.13657	1640.32547	271.89457	684.73541	1724.56879	314.0984	490.88905	1924.48441	276.83582	298.7476	1882.99683	265.61049	148.66175	1741.59851	207.10859	156.85834	1694.96811	253.07648	49.99493	1878.05176	25.8229	690.32097	1654.72336	34.53147	447.10869	1737.42889	102.09471	263.26862	1743.4201	91.11917	71.35431	1638.08533	160.06222	84.35477	1593.88443	95.33791	39.4562	1807.37808
118	4.4	220.77196	1654.84314	1905.09125	36.41782	1641.12457	1896.49368	237.36444	1622.60223	1781.06232	33.4178	1619.42078	1782.73056	219.32606	1399.67255	1893.14987	97.91932	1390.4007	1899.97849	212.70668	1463.55804	1749.98734	64.4083	1455.15076	1765.37704	137.68117	1303.40103	1668.23761	174.05472	1328.78357	1934.13391	180.02865	1225.6942	1949.87701	344.2659	1427.77328	1800.93903	421.64829	1213.59703	1750.55008	439.07322	1145.92262	1692.31903	493.86684	1042.18956	1686.65421	495.80914	890.96466	1731.5741	515.14915	914.12437	1656.39542	552.74799	861.70486	1691.66855	-32.39336	1396.43509	1852.7977	-111.95792	1229.93446	1836.77002	-146.13396	1119.52332	1853.32245	-133.69406	1021.53877	1960.85297	-43.52988	1011.42563	2087.79953	-109.20214	960.18082	2071.62521	-92.63096	978.22807	2140.41626	269.84015	939.87579	1904.64035	34.76088	934.93248	1904.38736	217.64309	971.61484	1687.39716	75.01325	983.44017	1687.27386	274.12775	685.32333	1779.6904	303.8258	490.35892	1982.81296	268.98029	293.03799	1983.20602	259.59009	112.29374	1884.76379	200.12728	107.8907	1838.44421	253.78437	51.89753	2042.03278	28.50888	694.99519	1683.29788	35.61171	447.10541	1747.27997	102.18089	263.42701	1748.93402	92.18451	73.35055	1639.11041	161.32145	86.99193	1595.70358	95.44326	39.01263	1807.52502
119	4.433	227.381	1645.0412	1952.8653	42.78892	1635.70831	1944.23294	243.26097	1610.97244	1829.16	39.24878	1612.81265	1830.75043	221.22175	1389.58313	1941.85257	99.30033	1382.57614	1948.9566	214.55967	1453.71704	1799.07486	66.49686	1448.37982	1814.65012	137.49821	1295.50217	1716.8309	174.11354	1319.70398	1982.73254	177.93434	1216.57089	1998.37418	345.91656	1418.22159	1847.05582	425.94086	1210.5632	1778.65646	439.40044	1145.41008	1718.38547	495.4599	1041.99387	1705.40909	505.03281	891.28036	1749.43619	515.53368	913.66333	1672.10709	557.92271	863.19458	1704.00879	-30.25426	1392.76413	1902.76077	-118.54281	1231.78009	1894.64478	-158.09918	1124.65012	1919.65866	-137.29012	1042.79579	2038.29529	-37.291	1052.31796	2157.72339	-103.90287	999.50783	2155.13809	-81.60697	1029.58084	2218.86948	266.21008	930.79376	1956.47568	31.54617	923.8414	1950.0705	221.2085	964.62547	1739.73129	78.29778	977.54402	1735.17502	271.06184	676.88507	1828.17902	294.68813	479.66782	2029.00085	265.67282	292.314	2074.84924	255.9366	92.51028	2029.08676	195.01507	77.12506	1986.78223	254.26668	69.84665	2199.03259	31.73963	696.12831	1715.10956	35.54704	444.60312	1761.92139	101.71318	260.69805	1757.0166	94.12675	74.92691	1640.00214	164.01058	89.58298	1598.40988	95.15385	38.83511	1807.14523
120	4.467	235.32101	1632.21985	2001.04614	50.57334	1627.18597	1992.53342	250.11337	1596.07498	1877.71866	46.25222	1602.74353	1879.37851	223.87659	1376.55243	1991.82129	101.66175	1371.32019	1999.07669	217.17237	1441.00189	1848.51395	69.41311	1438.32672	1864.55185	138.70006	1284.16779	1766.63971	175.31292	1307.18536	2032.4321	177.40685	1203.99879	2047.67105	348.10268	1406.21628	1895.65048	428.3083	1206.10863	1814.50165	439.82727	1142.41425	1751.00357	496.22433	1039.18877	1732.52274	511.42494	889.23004	1775.79437	514.62719	909.84222	1697.30667	560.8128	860.94963	1726.06735	-26.64856	1386.31363	1953.31787	-122.76256	1230.72174	1952.10999	-167.93823	1128.12737	1982.86819	-141.31024	1061.47408	2109.31595	-33.9868	1084.2897	2219.95468	-101.18842	1032.93152	2228.30582	-74.74504	1072.14256	2286.02921	263.42777	918.40111	2009.23981	29.52242	911.10634	1996.49918	225.3418	952.96677	1790.55725	82.14685	966.43532	1782.95105	265.79754	662.15103	1871.97571	287.72308	462.18063	2072.97684	261.73031	297.27259	2155.38849	250.42641	92.29774	2152.68814	188.37931	69.58958	2115.4158	252.57816	103.49311	2327.80228	35.33728	694.62677	1750.90515	35.56995	440.63217	1782.94678	101.49371	256.81641	1768.62167	95.53757	77.21598	1641.92963	165.5802	93.69076	1601.76697	95.54257	38.15249	1807.37503
121	4.5	244.23313	1619.58893	2049.91608	59.37953	1618.22433	2041.6124	257.97558	1580.98572	1927.06573	54.24753	1592.02972	1928.99139	227.75173	1362.7565	2043.39325	105.33808	1359.14673	2050.86426	221.4838	1428.69019	1899.95819	73.56789	1427.89825	1916.28891	140.92	1273.36937	1817.3851	178.03013	1293.54492	2083.41476	178.47538	1190.15549	2097.5235	351.71257	1393.12164	1946.80542	430.60329	1195.3894	1859.55597	441.0096	1134.70047	1792.76459	496.72783	1031.61194	1770.41046	513.97442	881.91116	1811.64642	513.61469	901.96709	1732.85431	561.41834	853.51112	1759.51355	-21.96324	1378.11691	2005.51498	-124.93666	1227.72171	2007.57355	-174.92805	1128.7822	2040.61508	-145.38312	1073.69652	2171.60858	-34.03531	1106.1499	2276.10809	-101.39496	1056.27548	2291.25687	-72.94718	1101.69067	2344.03366	262.01717	905.36385	2060.14893	27.53617	899.10713	2044.41162	228.96849	939.11469	1840.82184	85.17863	954.46671	1831.85028	262.50244	648.57658	1922.84058	283.31024	453.42194	2130.23926	254.17957	296.65302	2221.60034	238.64534	91.26314	2234.27582	175.55212	67.7243	2199.54636	243.36239	117.53179	2409.13696	37.59885	691.00716	1793.59879	34.62489	436.20155	1812.24777	101.06418	252.85275	1784.49356	95.38051	82.86563	1645.99487	165.774	102.10863	1607.38617	95.8217	37.28148	1807.41425
122	4.533	254.11594	1609.17755	2099.45557	69.20896	1611.22833	2091.3504	266.83924	1568.25134	1977.24182	62.98527	1583.26706	1979.22272	232.9575	1350.97839	2096.81763	110.37706	1349.41849	2104.7966	227.675	1418.71307	1953.90335	79.56813	1420.11383	1970.02304	144.25514	1265.17021	1870.42679	182.20463	1282.02469	2136.24359	181.21695	1178.44322	2149.10431	357.18086	1380.34317	2000.29465	433.1221	1182.40074	1910.89813	442.85469	1121.96709	1844.41025	497.6178	1019.19586	1820.28824	512.52399	868.27217	1857.47421	513.59051	890.66238	1779.46609	560.55744	841.02791	1805.60425	-16.41474	1371.22803	2058.76892	-124.08693	1224.29192	2058.79593	-177.92286	1127.98096	2090.90118	-148.86104	1078.99879	2224.20135	-37.35849	1116.63345	2326.50757	-104.72933	1067.58537	2344.86755	-76.5201	1115.82031	2394.39743	263.95033	896.35391	2111.39938	29.03669	888.35342	2096.15219	230.19686	929.92683	1891.04233	86.33186	945.54634	1883.93784	266.90224	640.72685	1983.19351	278.47967	449.18083	2191.19843	244.64746	282.20818	2271.28479	227.17497	77.87156	2267.27585	165.80498	57.52505	2229.0062	225.32492	91.70017	2441.80923	38.79666	685.32677	1841.49597	31.40391	431.48888	1849.36264	97.09617	250.60072	1806.94809	90.41485	93.05015	1652.30301	160.04267	116.42776	1614.52179	95.34019	37.43545	1807.41135
123	4.567	264.61609	1604.00558	2149.79523	79.91119	1608.71384	2141.23734	276.95606	1560.13992	2028.55347	73.2489	1578.29117	2029.79874	239.632	1343.28201	2152.15317	116.60686	1344.03534	2160.90912	235.80584	1411.99524	2008.90884	86.8414	1416.58157	2025.06042	148.5507	1260.85953	1924.64096	187.77149	1274.82872	2190.89996	185.22547	1171.23772	2202.6474	364.27658	1368.95203	2055.14938	435.42824	1166.18454	1970.4834	444.85588	1105.56053	1904.57047	497.99698	1002.81525	1880.46127	507.95624	850.05905	1913.99506	513.37379	875.7946	1837.49908	557.6281	824.03313	1863.82095	-10.62325	1367.39471	2112.83966	-120.42479	1221.39038	2104.68948	-176.86331	1125.76683	2132.22076	-151.39112	1076.22528	2266.46683	-42.77553	1114.88968	2371.84937	-109.77536	1064.69765	2388.16849	-84.5225	1113.88954	2438.13431	268.10104	895.46249	2163.88748	33.56409	881.34979	2150.40024	231.43539	926.69273	1942.82928	85.77558	939.06532	1937.61856	268.13114	640.12421	2040.2684	275.54764	451.86699	2249.96994	236.02455	277.9357	2320.08087	226.39568	74.73441	2295.77499	164.59751	59.52083	2251.10886	219.61193	56.72123	2472.86819	38.73341	677.68044	1895.96359	26.79126	424.4054	1903.58292	92.33969	249.60417	1838.27164	81.10723	111.54895	1665.13168	149.96548	141.86076	1629.58359	94.5268	37.03768	1807.85385
